<?xml version="1.0" standalone="no"?>
<!DOCTYPE svg PUBLIC "-//W3C//DTD SVG 20010904//EN"
 "http://www.w3.org/TR/2001/REC-SVG-20010904/DTD/svg10.dtd">
<svg version="1.0" xmlns="http://www.w3.org/2000/svg"
 width="2329.000000pt" height="2329.000000pt" viewBox="0 0 2329.000000 2329.000000"
 preserveAspectRatio="xMidYMid meet">
<metadata>
Created by potrace 1.11, written by Peter Selinger 2001-2013
</metadata>
<g transform="translate(0.000000,2329.000000) scale(0.100000,-0.100000)"
fill="#000000" stroke="none">
<path d="M14108 16562 c-25 -3 -30 -11 -52 -80 -14 -42 -70 -210 -125 -372
-183 -536 -341 -1002 -424 -1247 l-82 -243 -2394 -2 -2395 -3 -7 -25 c-4 -14
-75 -225 -158 -470 -84 -245 -169 -497 -190 -560 l-39 -115 -1738 -5 -1737 -5
-78 -230 c-44 -126 -79 -231 -79 -232 0 -2 782 -3 1739 -3 l1739 0 5 23 c3 12
30 96 62 187 31 91 58 170 59 175 1 6 8 26 14 46 l13 37 2389 0 c1315 0 2390
-4 2390 -8 0 -4 -7 -27 -16 -51 -9 -24 -58 -168 -109 -319 -52 -151 -168 -493
-258 -760 -91 -267 -188 -555 -217 -640 -29 -85 -54 -157 -56 -159 -2 -2
-1078 -3 -2393 -3 -2210 0 -2390 -1 -2396 -17 -4 -9 -11 -27 -15 -41 -5 -14
-88 -259 -185 -545 -98 -286 -180 -530 -182 -543 -3 -12 -9 -25 -14 -28 -5 -3
-787 -5 -1738 -5 l-1730 -1 -16 -41 c-54 -146 -142 -423 -135 -427 6 -4 3408
-5 3455 -1 6 1 23 40 39 89 15 48 31 96 36 107 5 11 25 72 46 135 20 63 41
120 46 125 9 10 4778 15 4778 5 0 -3 -20 -64 -44 -135 -25 -72 -90 -265 -146
-430 -56 -165 -105 -309 -110 -320 -5 -11 -54 -155 -109 -320 -55 -165 -134
-397 -174 -515 l-73 -215 -2386 0 c-1578 0 -2390 -3 -2396 -10 -6 -6 -26 -57
-45 -115 -19 -58 -108 -318 -196 -579 -89 -261 -161 -475 -161 -475 0 -1 -781
-1 -1736 -1 l-1737 0 -72 -217 c-41 -120 -76 -226 -80 -237 -6 -19 19 -19
1729 -19 1619 -1 1735 0 1741 16 4 9 40 113 81 231 40 117 75 216 78 219 3 2
1079 5 2391 5 1711 0 2387 3 2392 10 7 12 144 412 305 892 50 149 92 272 94
274 2 2 1514 5 3361 5 l3356 1 73 215 c66 196 304 898 483 1425 40 116 78 231
85 257 l14 46 -3350 0 c-1842 1 -3352 2 -3354 5 -2 2 48 156 112 343 63 186
117 344 118 349 2 6 6 17 9 25 3 8 39 112 78 230 40 118 76 217 80 220 4 3
1515 5 3358 5 l3351 0 14 35 c7 19 25 73 40 120 15 47 31 94 36 105 5 11 31
88 58 170 50 148 169 502 396 1170 64 187 116 341 116 342 0 2 -1510 3 -3356
3 -2681 0 -3355 3 -3352 13 3 6 48 140 101 297 53 157 141 416 195 575 l98
290 3357 1 c1847 1 3359 3 3360 5 1 2 20 56 41 119 39 118 315 930 507 1494
60 176 107 322 104 324 -4 5 -6646 9 -6687 4z"/>
</g>
</svg>
