<?xml version="1.0" encoding="utf-8"?>
<!-- Generator: Adobe Illustrator 19.2.1, SVG Export Plug-In . SVG Version: 6.00 Build 0)  -->
<svg version="1.1" id="Layer_1" xmlns="http://www.w3.org/2000/svg" xmlns:xlink="http://www.w3.org/1999/xlink" x="0px" y="0px"
	 viewBox="0 0 1040.2 1000" style="enable-background:new 0 0 1040.2 1000;" xml:space="preserve">
<style type="text/css">
	.st0{fill:#FFFFFF;}
</style>
<g>
	<path class="st0" d="M715.7,393.4c0,39.4,0,76.3,0,114.9c-23.5,0-46,0-68.6,0c-18.1,0-36.2,0.8-54.2-0.3
		c-13.2-0.8-16.3,4.4-16.2,16.7c0.4,101,0.2,201.9,0.2,302.9c0,4.6-0.5,9.3,0.1,13.9c1.4,11.9-3.1,16.5-15.5,16.2
		c-33.3-0.7-66.7-0.3-100-0.4c-17,0-17.6-0.8-17.6-18.3c0-104.2,0-208.4,0-312.6c0-18.1-0.1-18.1-18.1-18.1
		c-29.6,0-59.3-0.4-88.9,0.2c-10.4,0.2-13.6-3.3-13.4-13.5c0.5-33.2,0.2-66.4,0.2-100.7c6.6-0.3,11.6-0.8,16.5-0.8
		c30.6-0.1,61.1-0.3,91.7,0.1c9.1,0.1,12.3-2.9,12.1-11.9c-0.4-20.8-1.1-41.7,0.2-62.5c3.6-59,25.1-109.2,74.5-144.7
		c24.5-17.6,52.5-26,82.2-26.9c33.8-1.1,67.6,0.1,101.4-0.4c10.8-0.2,14.6,3.5,14.4,14.5c-0.5,31.9-0.5,63.9,0,95.9
		c0.2,10.7-3.2,14.7-14.2,14.4c-29.2-0.6-58.3-0.3-87.5-0.2c-22.8,0.1-36.9,12.9-37.7,36c-0.9,25,0,50-0.5,75
		c-0.2,10.3,5.7,10.9,13.4,10.8c35.7-0.1,71.3-0.1,107-0.1C703,393.4,708.9,393.4,715.7,393.4z"/>
</g>
</svg>
