<?xml version="1.0" encoding="utf-8"?>
<!-- Generator: Adobe Illustrator 19.2.1, SVG Export Plug-In . SVG Version: 6.00 Build 0)  -->
<svg version="1.1" id="Layer_1" xmlns="http://www.w3.org/2000/svg" xmlns:xlink="http://www.w3.org/1999/xlink" x="0px" y="0px"
	 viewBox="0 0 1040.2 1000" style="enable-background:new 0 0 1040.2 1000;" xml:space="preserve">
<style type="text/css">
	.st0{clip-path:url(#SVGID_2_);}
	.st1{clip-path:url(#SVGID_4_);fill:#FFFFFF;}
</style>
<g id="Artwork_1">
	<g>
		<defs>
			<rect id="SVGID_1_" x="93.8" y="73.2" width="852.6" height="853.7"/>
		</defs>
		<clipPath id="SVGID_2_">
			<use xlink:href="#SVGID_1_"  style="overflow:visible;"/>
		</clipPath>
		<g class="st0">
			<defs>
				<rect id="SVGID_3_" x="93.8" y="73.2" width="852.6" height="853.7"/>
			</defs>
			<clipPath id="SVGID_4_">
				<use xlink:href="#SVGID_3_"  style="overflow:visible;"/>
			</clipPath>
			<path class="st1" d="M93.8,766.3c0,44.5,15.5,82.3,46.4,113.6s68.6,46.9,113.1,46.9h533.7c44.5,0,82.2-15.6,113.1-46.9
				c30.9-31.3,46.4-69.1,46.4-113.6V503.6h-196c-13.9,50.7-42.2,92.4-85,125.1c-42.7,32.7-91.2,49-145.4,49
				c-54.2,0-102.5-16.3-144.9-49c-42.4-32.7-71.2-74.4-86.5-125.1H93.8V766.3z M93.8,370.2h194.9c15.3-50.7,44.1-92.1,86.5-124
				c42.4-32,90.7-47.9,144.9-47.9c54.2,0,102.7,16,145.4,47.9c42.7,32,71.1,73.3,85,124h196V232.6c0-44.5-15.5-82.2-46.4-113.1
				c-30.9-30.9-68.6-46.4-113.1-46.4H253.2c-44.5,0-82.2,15.5-113.1,46.4c-30.9,30.9-46.4,68.6-46.4,113.1V370.2z M386.7,436.9
				c0,36.8,13,68.3,39.1,94.3c26.1,26.1,57.5,39.1,94.3,39.1c36.8,0,68.3-13,94.3-39.1c26.1-26.1,39.1-57.5,39.1-94.3
				s-13-68.3-39.1-94.3c-26.1-26.1-57.5-39.1-94.3-39.1c-36.8,0-68.3,13-94.3,39.1C399.7,368.7,386.7,400.1,386.7,436.9"/>
		</g>
	</g>
</g>
</svg>
