<?xml version="1.0" encoding="utf-8"?>
<!-- Generator: Adobe Illustrator 19.2.1, SVG Export Plug-In . SVG Version: 6.00 Build 0)  -->
<svg version="1.1" id="Layer_1" xmlns="http://www.w3.org/2000/svg" xmlns:xlink="http://www.w3.org/1999/xlink" x="0px" y="0px"
	 viewBox="0 0 995.4 777.3" style="enable-background:new 0 0 995.4 777.3;" xml:space="preserve">
<style type="text/css">
	.st0{fill:#2D2D2D;}
</style>
<g id="WbeIJq_1_">
	<g>
		<path class="st0" d="M498.8,455.6c-118.8,0-237.7,0.1-356.5,0c-34.6,0-63.5-20-72.5-49.6c-13-43.1,20.3-83.8,69.9-84.2
			c59.6-0.5,119.3-0.2,178.9-0.2c178.5,0,357,0,535.4,0c42.9,0,73.5,27.1,73.7,65.2c0.2,38.8-30.9,68.6-72.5,68.7
			c-105.4,0.2-210.8,0.1-316.2,0.1C525.8,455.6,512.3,455.6,498.8,455.6z"/>
		<path class="st0" d="M498.9,724.8c-118.8,0-237.7,0-356.5,0c-34.6,0-63.6-20-72.5-49.5c-13.1-43.1,20.4-84,69.7-84.3
			c59.6-0.4,119.3-0.1,178.9-0.1c178.5,0,357,0,535.5,0c35.9,0,63.3,18.4,71.3,47.9c12.1,44.8-21.1,85.9-69.8,86
			c-104,0.2-208.1,0.1-312.1,0.1C528.5,724.8,513.7,724.8,498.9,724.8z"/>
		<path class="st0" d="M498.4,52.4c119.3,0,238.6-0.1,357.8,0.1c28,0,51,10.6,64.3,36.3c11.8,22.6,9.8,45.3-4.1,66.4
			c-14.5,22-35.9,31.3-62,31.3c-116.6-0.1-233.2,0-349.8,0c-120.6,0-241.3,0-361.9-0.1c-35.4,0-64.6-20.4-73.2-50.4
			c-12.2-42.9,20.7-82.9,69.5-83.4c60.1-0.6,120.2-0.2,180.3-0.2C379.1,52.4,438.8,52.4,498.4,52.4z"/>
	</g>
</g>
</svg>
