<?xml version="1.0" encoding="utf-8"?>
<!-- Generator: Adobe Illustrator 19.2.1, SVG Export Plug-In . SVG Version: 6.00 Build 0)  -->
<svg version="1.1" id="Layer_1" xmlns="http://www.w3.org/2000/svg" xmlns:xlink="http://www.w3.org/1999/xlink" x="0px" y="0px"
	 viewBox="0 0 374.3 174.6" style="enable-background:new 0 0 374.3 174.6;" xml:space="preserve">
<style type="text/css">
	.st0{fill:#00538E;}
	.st1{fill-rule:evenodd;clip-rule:evenodd;fill:#ED1C2E;}
	.st2{fill-rule:evenodd;clip-rule:evenodd;fill:#00538E;}
</style>
<g id="XMLID_2_">
	<path id="XMLID_15_" class="st0" d="M63.6,98.7h-1.3l-2.8,4c-3.9-2.8-7.5-4-11.5-4c-9.3,0-16.4,7.7-16.4,17.8c0,8.1,4,12.8,13,15.2
		l6.9,1.9c7.9,2.1,11.1,5.4,11.1,11.9c0,7.8-5.3,13.2-13.1,13.2c-5.4,0-10.4-2.7-13.7-7.5c-1.9-2.7-2.7-5.1-3.5-10.3h-1.8l0.6,18.6
		h1.2l3.1-5c4.8,4.4,8.5,5.9,13.9,5.9c10.4,0,17.6-8.3,17.6-20.3c0-9.5-4.3-14.8-14.2-17.4l-4.8-1.2c-8.8-2.3-12.1-5-12.1-10.2
		c0-6.2,5.1-11,12-11c7.6,0,12.7,4.9,14,13.9h1.8L63.6,98.7L63.6,98.7z"/>
	<polygon id="XMLID_14_" class="st0" points="79.6,99.5 66.6,99.5 66.6,101.1 72.6,101.1 72.6,157.9 66.6,157.9 66.6,159.5 
		85.5,159.5 85.5,157.9 79.6,157.9 79.6,99.5 	"/>
	<path id="XMLID_13_" class="st0" d="M112.2,100.6c-2.7,0-4.9,2.2-4.9,4.8c0,2.7,2.2,4.9,4.9,4.9c2.6,0,4.8-2.2,4.8-4.9
		C117,102.8,114.8,100.6,112.2,100.6L112.2,100.6z"/>
	<path id="XMLID_12_" class="st0" d="M183.8,123.9h-1.2l-1.3,3.2c-3.2-2.5-5.6-3.4-8.8-3.4c-6.2,0-10.7,4.5-10.7,10.8
		c0,5.4,3.1,9.2,8.4,10.3l6.9,1.3c3.9,0.8,5.8,2.5,5.8,5.4c0,3.8-3.7,7-8,7c-6.3,0-10.2-4-11.9-12.4h-1.5v13.3h0.9l2.1-3.4
		c3.8,3.3,6.2,4.3,9.9,4.3c6.7,0,11.3-4.9,11.3-11.9c0-6.4-3.1-9.8-10.2-11.2l-4-0.8c-5.2-1.1-6.9-2.2-6.9-4.8
		c0-3.2,3.5-6.1,7.5-6.1c5.5,0,9.2,3.2,10.3,8.8h1.5V123.9L183.8,123.9z"/>
	<path id="XMLID_11_" class="st0" d="M199,101.1h7.8v-1.6h-24v1.6h7.8v36c0,9.6,1.3,14.5,4.9,18.1c3.3,3.4,9.2,5.2,16.6,5.2
		c6.6,0,11.4-2.2,14.5-6.6c2.3-3.3,3.1-7.1,3.1-14.3v-38.4h6.7v-1.6h-15.9v1.6h7.2v38.4c0,6.8-0.4,9-1.8,11.8
		c-2.4,4.7-6.9,7.3-12.4,7.3c-4.5,0-8.5-1.6-11.1-4.4c-2.7-2.9-3.4-5.8-3.4-13.1V101.1L199,101.1z"/>
	<path id="XMLID_10_" class="st0" d="M268.1,98.7h-1.3l-2.8,4c-3.9-2.8-7.5-4-11.5-4c-9.3,0-16.4,7.7-16.4,17.8
		c0,8.1,4,12.8,13,15.2l6.9,1.9c7.9,2.1,11.1,5.4,11.1,11.9c0,7.8-5.3,13.2-13.1,13.2c-5.4,0-10.4-2.7-13.7-7.5
		c-1.9-2.7-2.7-5.1-3.5-10.3H235l0.6,18.6h1.2l3.1-5c4.8,4.4,8.5,5.9,13.9,5.9c10.4,0,17.6-8.3,17.6-20.3c0-9.5-4.3-14.8-14.2-17.4
		l-4.8-1.2c-8.8-2.3-12.1-5-12.1-10.2c0-6.2,5.1-11,12-11c7.6,0,12.7,4.9,14,13.9h1.8L268.1,98.7L268.1,98.7z"/>
	<polygon id="XMLID_9_" class="st1" points="189.6,79.4 188.5,82.6 212.6,82.6 216.5,71.2 296.5,71.2 301.1,57.6 197,57.6 
		195.9,60.9 220,60.9 223.9,49.4 303.9,49.4 308.5,35.9 204.3,35.9 203.2,39.2 227.4,39.2 231.3,27.7 311.3,27.7 315.8,14.2 
		269.1,14.2 247,79.4 189.6,79.4 	"/>
	<polygon id="XMLID_8_" class="st0" points="273.9,138.6 293.7,138.6 283.9,109.5 287.2,99.5 289.6,99.5 309.3,157.8 316.1,157.8 
		316.1,159.5 291.7,159.5 291.7,157.8 300.2,157.8 294.3,140.2 273.4,140.2 273.9,138.6 	"/>
	<path id="XMLID_23_" class="st2" d="M153.3,99.5v58.4h6.8v1.6H89.9v-1.6h4.9l-13.5-17.6l15.3-13.9h-8.5v-1.6h28.1v33.2h11.6v-56.8
		h-6.9v-1.6h13.9v58.4h11.6v-56.8h-6.9v-1.6H153.3L153.3,99.5z M88.1,137l16.6,20.9h4.4h0.3v-31.6h-3.7h-2.4h-3.7L88.1,137L88.1,137
		z"/>
	<path id="XMLID_18_" class="st2" d="M338.4,159.7c3.1,0,5.5-2.4,5.5-5.5c0-3-2.4-5.5-5.5-5.5s-5.5,2.4-5.5,5.5
		C332.9,157.3,335.4,159.7,338.4,159.7L338.4,159.7z M338.4,149.7c2.5,0,4.6,2,4.6,4.6c0,2.6-2.1,4.6-4.6,4.6c-2.5,0-4.6-2-4.6-4.6
		C333.8,151.7,335.9,149.7,338.4,149.7L338.4,149.7z M339.4,154.5c0.8,0,1.6-0.5,1.6-1.7c0-1.3-1-1.6-2.1-1.6h-2.6v6.1h0.9v-2.8h1.1
		l1.6,2.8h1L339.4,154.5L339.4,154.5z M338.7,152.1c0.7,0,1.4,0.1,1.4,0.8c0,0.8-1.1,0.7-2,0.7h-0.9v-1.5H338.7L338.7,152.1z"/>
</g>
</svg>
