<?xml version="1.0" encoding="utf-8"?>
<!-- Generator: Adobe Illustrator 19.2.1, SVG Export Plug-In . SVG Version: 6.00 Build 0)  -->
<svg version="1.1" id="Layer_1" xmlns="http://www.w3.org/2000/svg" xmlns:xlink="http://www.w3.org/1999/xlink" x="0px" y="0px"
	 viewBox="0 0 242.3 174.6" style="enable-background:new 0 0 242.3 174.6;" xml:space="preserve">
<style type="text/css">
	.st0{clip-path:url(#SVGID_2_);}
	.st1{clip-path:url(#SVGID_4_);fill:#00548E;}
	.st2{clip-path:url(#SVGID_4_);fill-rule:evenodd;clip-rule:evenodd;fill:#ED1C2E;}
	.st3{clip-path:url(#SVGID_4_);fill-rule:evenodd;clip-rule:evenodd;fill:#00548E;}
</style>
<g id="Skills_USA_Oregon">
	<g>
		<defs>
			<rect id="SVGID_1_" x="31.2" y="24.8" width="177.6" height="118.5"/>
		</defs>
		<clipPath id="SVGID_2_">
			<use xlink:href="#SVGID_1_"  style="overflow:visible;"/>
		</clipPath>
		<g class="st0">
			<defs>
				<rect id="SVGID_3_" x="31.2" y="24.8" width="177.6" height="118.5"/>
			</defs>
			<clipPath id="SVGID_4_">
				<use xlink:href="#SVGID_3_"  style="overflow:visible;"/>
			</clipPath>
			<path class="st1" d="M51.1,136.1c0-1.1,0.2-2,0.5-2.9c0.4-0.9,0.8-1.6,1.5-2.3c0.6-0.6,1.4-1.1,2.3-1.5c0.9-0.4,1.8-0.5,2.9-0.5
				c1.1,0,2,0.2,2.9,0.5c0.9,0.4,1.6,0.9,2.3,1.5c0.6,0.6,1.1,1.4,1.5,2.3s0.5,1.9,0.5,2.9s-0.2,2-0.5,2.9c-0.4,0.9-0.8,1.7-1.5,2.3
				c-0.6,0.6-1.4,1.1-2.3,1.5c-0.9,0.4-1.8,0.5-2.9,0.5c-1.1,0-2-0.2-2.9-0.5s-1.6-0.9-2.3-1.5c-0.6-0.6-1.1-1.4-1.5-2.3
				C51.3,138.1,51.1,137.1,51.1,136.1 M52.4,136.1c0,0.9,0.1,1.7,0.4,2.4c0.3,0.7,0.7,1.4,1.2,1.9c0.5,0.5,1.1,1,1.8,1.3
				c0.7,0.3,1.5,0.5,2.4,0.5c0.9,0,1.7-0.2,2.4-0.5c0.7-0.3,1.3-0.7,1.8-1.3c0.5-0.5,0.9-1.2,1.2-1.9c0.3-0.7,0.4-1.5,0.4-2.4
				s-0.1-1.7-0.4-2.4c-0.3-0.7-0.7-1.4-1.2-1.9c-0.5-0.5-1.1-1-1.8-1.3c-0.7-0.3-1.5-0.5-2.4-0.5c-0.9,0-1.7,0.2-2.4,0.5
				c-0.7,0.3-1.3,0.7-1.8,1.3c-0.5,0.5-0.9,1.2-1.2,1.9C52.5,134.4,52.4,135.2,52.4,136.1"/>
			<path class="st1" d="M76.7,129.2h3.6c0.2,0,0.4,0,0.7,0c0.3,0,0.6,0.1,1,0.1c0.4,0.1,0.7,0.2,1.1,0.3c0.4,0.1,0.7,0.4,1,0.6
				c0.3,0.3,0.5,0.6,0.7,1c0.2,0.4,0.3,0.9,0.3,1.5c0,0.7-0.1,1.2-0.3,1.6c-0.2,0.4-0.5,0.8-0.9,1c-0.3,0.3-0.7,0.5-1.1,0.6
				c-0.4,0.1-0.8,0.2-1.2,0.3l4,6.6h-1.5l-3.9-6.6H78v6.6h-1.3V129.2z M78,135.3h2.7c0.7,0,1.2-0.1,1.6-0.3c0.4-0.2,0.8-0.4,1-0.6
				s0.4-0.5,0.5-0.8c0.1-0.3,0.1-0.5,0.1-0.8c0-0.2,0-0.5-0.1-0.8c-0.1-0.3-0.2-0.6-0.5-0.8s-0.6-0.5-1-0.6c-0.4-0.2-1-0.3-1.6-0.3
				H78V135.3z"/>
			<polygon class="st1" points="96.7,129.2 105.1,129.2 105.1,130.4 98,130.4 98,135.3 104.7,135.3 104.7,136.4 98,136.4 98,141.8 
				105.4,141.8 105.4,143 96.7,143 			"/>
			<path class="st1" d="M128.1,142.1c-0.8,0.5-1.6,0.8-2.5,1c-0.9,0.2-1.7,0.3-2.6,0.3c-1.1,0-2-0.2-2.9-0.5
				c-0.9-0.4-1.6-0.9-2.3-1.5c-0.6-0.6-1.1-1.4-1.5-2.3c-0.4-0.9-0.5-1.9-0.5-2.9c0-1.1,0.2-2,0.5-2.9c0.4-0.9,0.8-1.6,1.5-2.3
				c0.6-0.6,1.4-1.1,2.3-1.5c0.9-0.4,1.8-0.5,2.9-0.5c2.1,0,3.7,0.6,5,1.9l-0.9,1c-0.2-0.2-0.5-0.5-0.8-0.7s-0.6-0.4-1-0.5
				c-0.4-0.1-0.7-0.3-1.1-0.4c-0.4-0.1-0.8-0.1-1.2-0.1c-0.9,0-1.7,0.2-2.4,0.5c-0.7,0.3-1.3,0.7-1.8,1.3s-0.9,1.2-1.2,1.9
				c-0.3,0.7-0.4,1.5-0.4,2.4c0,0.9,0.1,1.7,0.4,2.4c0.3,0.7,0.7,1.4,1.2,1.9s1.1,1,1.8,1.3c0.7,0.3,1.5,0.5,2.4,0.5
				c0.7,0,1.4-0.1,2.1-0.2c0.6-0.1,1.2-0.3,1.8-0.6v-4.6h-3.3v-1.2h4.6V142.1z"/>
			<path class="st1" d="M139.4,136.1c0-1.1,0.2-2,0.5-2.9s0.8-1.6,1.5-2.3c0.6-0.6,1.4-1.1,2.3-1.5c0.9-0.4,1.8-0.5,2.9-0.5
				c1.1,0,2,0.2,2.9,0.5c0.9,0.4,1.6,0.9,2.3,1.5c0.6,0.6,1.1,1.4,1.5,2.3c0.4,0.9,0.5,1.9,0.5,2.9s-0.2,2-0.5,2.9
				c-0.4,0.9-0.8,1.7-1.5,2.3c-0.6,0.6-1.4,1.1-2.3,1.5c-0.9,0.4-1.8,0.5-2.9,0.5c-1.1,0-2-0.2-2.9-0.5c-0.9-0.4-1.6-0.9-2.3-1.5
				c-0.6-0.6-1.1-1.4-1.5-2.3C139.5,138.1,139.4,137.1,139.4,136.1 M140.7,136.1c0,0.9,0.1,1.7,0.4,2.4c0.3,0.7,0.7,1.4,1.2,1.9
				c0.5,0.5,1.1,1,1.8,1.3c0.7,0.3,1.5,0.5,2.4,0.5c0.9,0,1.7-0.2,2.4-0.5c0.7-0.3,1.3-0.7,1.8-1.3c0.5-0.5,0.9-1.2,1.2-1.9
				c0.3-0.7,0.4-1.5,0.4-2.4s-0.1-1.7-0.4-2.4c-0.3-0.7-0.7-1.4-1.2-1.9c-0.5-0.5-1.1-1-1.8-1.3c-0.7-0.3-1.5-0.5-2.4-0.5
				c-0.9,0-1.7,0.2-2.4,0.5c-0.7,0.3-1.3,0.7-1.8,1.3c-0.5,0.5-0.9,1.2-1.2,1.9C140.8,134.4,140.7,135.2,140.7,136.1"/>
			<polygon class="st1" points="165,129.2 166.6,129.2 175,141.3 175.1,141.3 175.1,129.2 176.3,129.2 176.3,143 174.7,143 
				166.3,130.9 166.2,130.9 166.2,143 165,143 			"/>
			<path class="st1" d="M51.8,77.3H51l-1.7,2.5c-2.4-1.7-4.6-2.5-7.2-2.5c-5.8,0-10.2,4.8-10.2,11.1c0,5,2.5,7.9,8.1,9.5l4.3,1.2
				c4.9,1.3,6.9,3.4,6.9,7.4c0,4.9-3.3,8.2-8.2,8.2c-3.4,0-6.5-1.7-8.5-4.6c-1.2-1.7-1.7-3.2-2.2-6.4h-1.1l0.4,11.6h0.7l2-3.1
				c3,2.7,5.3,3.7,8.6,3.7c6.5,0,11-5.1,11-12.6c0-5.9-2.7-9.2-8.8-10.8l-3-0.7c-5.5-1.5-7.5-3.1-7.5-6.3c0-3.9,3.2-6.8,7.4-6.8
				c4.8,0,7.9,3,8.7,8.6h1.1L51.8,77.3z"/>
			<polygon class="st1" points="61.8,77.8 53.7,77.8 53.7,78.8 57.4,78.8 57.4,114.1 53.7,114.1 53.7,115.1 65.4,115.1 65.4,114.1 
				61.8,114.1 			"/>
			<path class="st1" d="M82.1,78.6c-1.7,0-3,1.3-3,3c0,1.7,1.3,3,3,3c1.6,0,3-1.3,3-3C85,79.9,83.7,78.6,82.1,78.6"/>
			<path class="st1" d="M126.5,93h-0.7l-0.8,2c-2-1.6-3.5-2.1-5.5-2.1c-3.9,0-6.7,2.8-6.7,6.7c0,3.4,1.9,5.7,5.2,6.4l4.3,0.8
				c2.4,0.5,3.6,1.6,3.6,3.4c0,2.3-2.3,4.4-5,4.4c-3.9,0-6.3-2.5-7.4-7.7h-1v8.3h0.6l1.3-2.1c2.3,2.1,3.9,2.7,6.2,2.7
				c4.1,0,7-3.1,7-7.4c0-4-2-6.1-6.3-7l-2.5-0.5c-3.2-0.7-4.3-1.4-4.3-3c0-2,2.2-3.8,4.6-3.8c3.4,0,5.7,2,6.4,5.5h1V93z"/>
			<path class="st1" d="M136,78.8h4.9v-1H126v1h4.9v22.4c0,6,0.8,9,3.1,11.2c2.1,2.1,5.7,3.2,10.3,3.2c4.1,0,7.1-1.4,9-4.1
				c1.5-2.1,2-4.4,2-8.9V78.8h4.1v-1h-9.9v1h4.5v23.9c0,4.3-0.2,5.6-1.1,7.3c-1.5,2.9-4.3,4.5-7.7,4.5c-2.8,0-5.3-1-6.9-2.7
				c-1.7-1.8-2.1-3.6-2.1-8.2V78.8z"/>
			<path class="st1" d="M179,77.3h-0.8l-1.7,2.5c-2.4-1.7-4.6-2.5-7.2-2.5c-5.8,0-10.2,4.8-10.2,11.1c0,5,2.5,7.9,8.1,9.5l4.3,1.2
				c4.9,1.3,6.9,3.4,6.9,7.4c0,4.9-3.3,8.2-8.2,8.2c-3.4,0-6.5-1.7-8.5-4.6c-1.2-1.7-1.7-3.2-2.2-6.4h-1.1l0.4,11.6h0.7l2-3.1
				c3,2.7,5.3,3.7,8.6,3.7c6.5,0,11-5.1,11-12.6c0-5.9-2.7-9.2-8.8-10.8l-3-0.7c-5.5-1.5-7.5-3.1-7.5-6.3c0-3.9,3.2-6.8,7.4-6.8
				c4.8,0,7.9,3,8.7,8.6h1.1L179,77.3z"/>
			<polygon class="st2" points="130.2,65.3 129.5,67.4 144.5,67.4 146.9,60.2 196.6,60.2 199.5,51.8 134.8,51.8 134.1,53.9 
				149.1,53.9 151.5,46.7 201.2,46.7 204.1,38.3 139.3,38.3 138.7,40.3 153.7,40.3 156.1,33.2 205.8,33.2 208.7,24.8 179.6,24.8 
				165.9,65.3 			"/>
			<polygon class="st1" points="182.6,102.1 194.9,102.1 188.8,84.1 190.8,77.8 192.4,77.8 204.6,114.1 208.9,114.1 208.9,115.1 
				193.6,115.1 193.6,114.1 199,114.1 195.3,103.2 182.2,103.2 			"/>
			<path class="st3" d="M107.6,77.8v36.3h4.3v1H68.2v-1h3.1l-8.4-11l9.5-8.7h-5.3v-1h17.5v20.6h7.2V78.8h-4.3v-1h8.6v36.3h7.2V78.8
				H99v-1H107.6z M67.1,101.2l10.3,13h2.7h0.2V94.5H78h-1.5h-2.3L67.1,101.2z"/>
		</g>
	</g>
</g>
</svg>
